<svg viewBox="0 0 512 512.0000000000002" width="512" height="512" version="1.1" xmlns="http://www.w3.org/2000/svg" xmlns:xlink="http://www.w3.org/1999/xlink" style="-webkit-print-color-adjust: exact;"><g id="shape-21e27c60-da51-11ec-9879-d1f15ec3167e" clip-path="url(#frame-clip-21e27c60-da51-11ec-9879-d1f15ec3167e-b8d78bf0-da52-11ec-9f40-b5ea59674000)"><defs><clipPath id="frame-clip-21e27c60-da51-11ec-9879-d1f15ec3167e-b8d78bf0-da52-11ec-9f40-b5ea59674000" class="frame-clip"><rect x="0" y="0" width="512" height="512"/></clipPath></defs><g id="shape-14231660-da52-11ec-9879-d1f15ec3167e"><ellipse cx="256" cy="256" rx="256" ry="256" transform="matrix(1,0,0,1,0,0)" style="fill: rgb(81, 93, 129); fill-opacity: 1;"/></g><g id="shape-5e3c77b0-da51-11ec-9879-d1f15ec3167e"><g><path d="M5060 16129 c-107 -8 -167 -23 -255 -65 -122 -57 -228 -165 -292
-295 -17 -35 -471 -1306 -1008 -2824 -1641 -4638 -2385 -6740 -2801 -7910
l-398 -1120 -1 -120 c0 -109 2 -125 26 -175 31 -66 78 -114 139 -141 104 -47
420 -51 535 -8 73 27 150 100 188 179 19 41 3130 8850 3865 10947 65 183 119
333 122 333 3 0 288 -807 634 -1793 346 -985 902 -2570 1236 -3522 334 -951
939 -2675 1345 -3830 405 -1154 746 -2117 757 -2139 29 -57 106 -134 160 -162
82 -41 256 -55 437 -34 208 24 297 131 295 355 l0 100 -763 2140 c-831 2331
-1138 3193 -2510 7050 -501 1408 -929 2596 -950 2640 -137 287 -395 421 -761
394z M3519 9010 c-106 -18 -180 -74 -221 -168 -47 -106 -46 -420 1 -528 38
-86 101 -136 201 -163 34 -9 441 -11 1690 -9 l1645 3 67 33 c77 38 128 91 166
172 24 49 27 70 30 196 6 207 -21 294 -120 378 -58 50 -102 72 -173 85 -69 13
-3211 14 -3286 1z" transform="translate(128, -27) scale(0.25, 0.25) translate(0.000000,2048.000000) scale(0.100000,-0.100000)" fill="#ffffff" stroke="none"/></g></g></g></svg>